<svg width="55" height="69" viewBox="0 0 55 69" fill="none" xmlns="http://www.w3.org/2000/svg">
<path d="M54.9325 26.9456L45.5152 0.758397C45.4052 0.451681 45.1696 0.206405 44.8675 0.0840223C44.5654 -0.0383588 44.2254 -0.026582 43.9325 0.116281L17.8607 12.8368C17.6118 12.9617 17.4131 13.1681 17.2984 13.4216L0.0933225 53.7621C-0.0311075 54.0514 -0.0311075 54.3792 0.0933225 54.668C0.217752 54.9552 0.45381 55.179 0.747221 55.2876L36.1786 68.7423C36.3271 68.8047 36.4879 68.8324 36.6487 68.8227C37.109 68.8222 37.5243 68.5467 37.704 68.1232L54.9091 27.7826C55.0218 27.5164 55.03 27.2173 54.9322 26.9454L54.9325 26.9456ZM35.9603 66.2073L2.61717 53.5902L19.2494 14.7414L43.7836 2.74396L52.6268 27.3017L35.9603 66.2073Z" fill="#32C5D4"/>
<path d="M32.7723 53.636C32.9029 53.6903 33.0437 53.718 33.185 53.7164C33.7437 53.7215 34.225 53.3232 34.3243 52.7732C34.4232 52.2233 34.1118 51.682 33.5865 51.4915L14.2591 44.162C13.9749 44.0539 13.6589 44.0631 13.3814 44.1881C13.1039 44.313 12.8873 44.5429 12.7797 44.8271C12.6722 45.1134 12.683 45.4298 12.81 45.7079C12.9369 45.9854 13.1699 46.201 13.4562 46.307L32.7723 53.636Z" fill="#32C5D4"/>
<path d="M34.2628 58.4994L8.66158 48.7385C8.06914 48.5132 7.40704 48.8113 7.18175 49.4037C6.95696 49.9961 7.25497 50.6582 7.84742 50.883L33.4486 60.5982H33.4481C33.5812 60.6433 33.7205 60.6668 33.8613 60.6674C34.3703 60.6177 34.7851 60.2372 34.8783 59.7344C34.9715 59.2316 34.7201 58.7277 34.2628 58.4993V58.4994Z" fill="#32C5D4"/>
<path d="M39.1956 46.9259L13.5944 37.2112C13.0019 36.9859 12.3398 37.2839 12.1145 37.8764C11.8897 38.4688 12.1877 39.1309 12.7802 39.3557L38.3814 49.0709H38.3809C38.514 49.1159 38.6533 49.1395 38.7941 49.14C39.341 49.1303 39.8054 48.736 39.9027 48.1978C40.0005 47.6591 39.7045 47.1271 39.1956 46.9259V46.9259Z" fill="#32C5D4"/>
<path d="M38.7472 14.2932C37.9044 13.9737 37.0103 13.8103 36.1091 13.8119C34.7128 13.7904 33.3404 14.1806 32.1637 14.9328C30.987 15.6855 30.0576 16.7675 29.4907 18.044C28.7912 19.6734 28.7912 21.5188 29.4907 23.1482C30.2398 24.8923 31.6762 26.2497 33.4596 26.899C34.306 27.219 35.2042 27.3819 36.109 27.3809C37.5028 27.4019 38.872 27.0132 40.0467 26.263C41.2214 25.5124 42.1497 24.4335 42.716 23.16C43.4206 21.5316 43.4206 19.6841 42.716 18.0557C41.9694 16.307 40.5332 14.9454 38.7471 14.2931L38.7472 14.2932ZM40.6055 22.2537C40.2164 23.115 39.5829 23.8426 38.7837 24.3465C37.9838 24.8504 37.054 25.1074 36.1093 25.0869C35.482 25.0921 34.8598 24.9794 34.274 24.7541C33.0727 24.325 32.1044 23.4145 31.6016 22.2425C31.1489 21.1876 31.1489 19.9936 31.6016 18.9387C31.9882 18.0703 32.6216 17.3339 33.423 16.8223C34.2244 16.3103 35.1583 16.045 36.1093 16.0599C36.7324 16.0604 37.35 16.173 37.9332 16.3927C39.1329 16.8285 40.1023 17.7358 40.6169 18.9043C41.0793 19.974 41.0752 21.1876 40.6057 22.2537H40.6055Z" fill="#32C5D4"/>
</svg>
