<svg width="69" height="69" viewBox="0 0 69 69" fill="none" xmlns="http://www.w3.org/2000/svg">
<path d="M15.5801 34.4994C15.5801 44.932 24.0673 53.4183 34.499 53.4183C44.9316 53.4183 53.4179 44.9312 53.4179 34.4994C53.4179 24.0669 44.9308 15.5805 34.499 15.5805C24.0665 15.5805 15.5801 24.0669 15.5801 34.4994ZM51.1926 34.4994C51.1926 43.7038 43.7036 51.1928 34.4992 51.1928C25.2948 51.1928 17.8059 43.7038 17.8059 34.4994C17.8059 25.295 25.2948 17.806 34.4992 17.806C43.7036 17.806 51.1926 25.295 51.1926 34.4994ZM63.4348 28.9349C60.3668 28.9349 57.8703 31.4314 57.8703 34.4994C57.8703 37.5674 60.3668 40.0639 63.4348 40.0639C66.5028 40.0639 68.9992 37.5674 68.9992 34.4994C68.9992 31.4314 66.5028 28.9349 63.4348 28.9349ZM63.4348 37.8383C61.5942 37.8383 60.0959 36.34 60.0959 34.4994C60.0959 32.6588 61.5941 31.1605 63.4348 31.1605C65.2753 31.1605 66.7736 32.6588 66.7736 34.4994C66.7729 36.34 65.2754 37.8383 63.4348 37.8383ZM34.4996 11.1289C37.5676 11.1289 40.0641 8.63245 40.0641 5.56445C40.0641 2.49645 37.5676 0 34.4996 0C31.4316 0 28.9352 2.49645 28.9352 5.56445C28.9352 8.63305 31.4316 11.1289 34.4996 11.1289ZM34.4996 2.22638C36.3402 2.22638 37.8385 3.72463 37.8385 5.56525C37.8385 7.40583 36.3402 8.90411 34.4996 8.90411C32.659 8.90411 31.1607 7.40587 31.1607 5.56525C31.1607 3.72389 32.659 2.22638 34.4996 2.22638ZM11.1289 34.5002C11.1289 31.4322 8.63246 28.9357 5.56446 28.9357C2.49646 28.9357 3.8147e-06 31.4322 3.8147e-06 34.5002C3.8147e-06 37.5682 2.49646 40.0646 5.56446 40.0646C8.63305 40.0646 11.1289 37.5682 11.1289 34.5002ZM5.56446 37.8391C3.72387 37.8391 2.22559 36.3408 2.22559 34.5002C2.22559 32.6596 3.72383 31.1613 5.56446 31.1613C7.40504 31.1613 8.90333 32.6596 8.90333 34.5002C8.90333 36.3408 7.40585 37.8391 5.56446 37.8391ZM34.4996 57.8711C31.4316 57.8711 28.9352 60.3675 28.9352 63.4355C28.9352 66.5035 31.4316 69 34.4996 69C37.5676 69 40.0641 66.5035 40.0641 63.4355C40.0641 60.367 37.5676 57.8711 34.4996 57.8711ZM34.4996 66.7736C32.659 66.7736 31.1607 65.2754 31.1607 63.4348C31.1607 61.5942 32.659 60.0959 34.4996 60.0959C36.3402 60.0959 37.8385 61.5941 37.8385 63.4348C37.8385 65.2761 36.3402 66.7736 34.4996 66.7736ZM8.02474 25.9405L5.90786 25.2558C8.22268 18.0906 13.2865 11.951 19.8655 8.26892L18.9751 6.26213L25.596 6.96779L21.675 12.3482L20.7699 10.3096C14.7652 13.7292 10.1479 19.3706 8.0247 25.9402L8.02474 25.9405ZM43.0589 8.02593L43.7436 5.90825C50.9088 8.22386 57.0484 13.2877 60.7305 19.8659L62.7381 18.977L62.0324 25.5971L56.6504 21.6762L58.689 20.7726C55.2694 14.7663 49.6304 10.149 43.0592 8.02581L43.0589 8.02593ZM25.9393 60.9757L25.2546 63.0925C18.0894 60.7777 11.9498 55.7131 8.26773 49.1357L6.26095 50.0246L6.9666 43.4045L12.347 47.3254L10.3084 48.229C13.7296 54.2352 19.3694 58.8525 25.939 60.9758L25.9393 60.9757ZM60.9735 43.0605L63.0904 43.7452C60.7755 50.9104 55.7109 57.05 49.1311 60.7321L50.0223 62.7397L43.4022 62.034L47.3232 56.652L48.2283 58.6906C54.233 55.271 58.8511 49.632 60.9735 43.0608L60.9735 43.0605ZM34.4986 24.4854C38.1813 24.4854 41.1764 27.4802 41.1764 31.1631C41.1764 32.8904 40.4986 34.5229 39.328 35.7448C41.0886 36.7222 42.5443 38.229 43.4578 40.0641C43.7318 40.6152 43.5091 41.2828 42.9571 41.5561C42.4137 41.8278 41.7383 41.6081 41.4659 41.0577C40.5196 39.1558 38.8319 37.7081 36.8315 37.0823C36.4053 36.9496 36.1017 36.5738 36.056 36.1321C36.0125 35.6881 36.2361 35.2619 36.6289 35.0461C38.0588 34.2566 38.95 32.7685 38.95 31.1623C38.95 28.707 36.9534 26.7112 34.4989 26.7112C32.0436 26.7112 30.0477 28.7078 30.0477 31.1623C30.0477 32.7685 30.9389 34.2558 32.3727 35.0437C32.7647 35.2595 32.989 35.6857 32.9448 36.1297C32.9005 36.5715 32.5954 36.948 32.17 37.0799C30.1704 37.7064 28.4812 39.1535 27.5349 41.0553C27.2608 41.6042 26.5909 41.8285 26.0428 41.5537C25.4917 41.2797 25.2681 40.6121 25.5421 40.0617C26.4558 38.2273 27.9114 36.7198 29.6719 35.7425C28.5005 34.5221 27.8213 32.8897 27.8213 31.1623C27.8213 27.4796 30.8161 24.4854 34.499 24.4854H34.4986Z" fill="#32C5D4"/>
</svg>
