<svg width="61" height="55" viewBox="0 0 61 55" fill="none" xmlns="http://www.w3.org/2000/svg">
<path d="M59.1957 0H1.80469C1.08743 0 0.608704 0.477897 0.608704 1.19599V22.7176C0.608704 24.6309 1.56533 26.4239 2.99979 27.4998V53.804C2.99979 54.5213 3.47768 55 4.19577 55H56.8042C57.5215 55 58.0002 54.5221 58.0002 53.804V27.4998C59.4347 26.4239 60.3913 24.75 60.3913 22.7176V1.19599C60.3913 0.47873 59.9134 0 59.1953 0H59.1957ZM48.4354 22.7173C48.4354 27.4845 41.261 27.4845 41.261 22.7173V2.39065H48.4354V22.7173ZM38.87 22.7173C38.87 27.4845 31.6957 27.4845 31.6957 22.7173L31.6965 2.39065H38.8708L38.87 22.7173ZM29.3046 22.7173C29.3046 27.4845 22.1303 27.4845 22.1303 22.7173L22.1311 2.39065H29.3054L29.3046 22.7173ZM19.74 22.7173C19.74 27.4845 12.5657 27.4845 12.5657 22.7173V2.39065H19.74V22.7173ZM3.00055 2.39065H10.1749V22.7164C10.1749 27.4836 3.00055 27.4836 3.00055 22.7164V2.39065ZM12.5659 52.6078V33.477H24.5224V52.6078H12.5659ZM55.6092 52.6078H26.9137V32.2812C26.9137 31.5639 26.4358 31.0852 25.7177 31.0852L11.3702 31.086C10.6529 31.086 10.1742 31.5639 10.1742 32.282V52.6078H5.39202V28.5753C6.58801 28.9723 9.60304 28.6587 11.3703 26.3034C13.7547 29.4818 18.5512 29.4827 20.9356 26.3034C23.3201 29.4818 28.1166 29.4827 30.501 26.3034C32.8855 29.4818 37.6811 29.4827 40.0664 26.3034C42.4509 29.4818 47.2465 29.4827 49.6318 26.3034C51.3999 28.6586 54.414 28.9722 55.61 28.5753L55.6092 52.6078ZM58.0003 22.7166C58.0003 27.4839 50.826 27.4839 50.826 22.7166V2.39001H58.0003V22.7166ZM49.631 31.086H35.2826C34.5653 31.086 34.0866 31.5639 34.0866 32.2819V46.6295C34.0866 47.3467 34.5645 47.8255 35.2826 47.8255H49.6301C50.3474 47.8255 50.8261 47.3476 50.8261 46.6295V32.2811C50.8261 31.5638 50.3482 31.0859 49.631 31.0859L49.631 31.086ZM48.435 45.4335H36.4785V33.477H48.435V45.4335Z" fill="#32C5D4"/>
</svg>
