<svg width="41" height="35" viewBox="0 0 41 35" fill="none" xmlns="http://www.w3.org/2000/svg">
<path d="M28.7555 30.041C35.3339 23.4287 35.3339 12.708 28.7555 6.09575C22.177 -0.516539 11.5112 -0.516538 4.93271 6.09575C-1.64576 12.708 -1.64575 23.4287 4.93272 30.041C11.5112 36.6533 22.177 36.6533 28.7555 30.041Z" fill="#F7F7F5"/>
<path d="M21.6462 11.7948V8.75434C21.6462 8.75434 18.5525 8.72363 18.3424 8.72363C16.9445 8.72363 14.9336 10.3245 14.9336 12.1365V15.3996H12.0405V18.8547H14.905V27.4214H18.2889V18.8163H21.2642L21.6462 15.4418H18.3157V12.9638C18.309 12.6593 18.4226 12.3645 18.6316 12.144C18.8406 11.9235 19.128 11.7952 19.4309 11.7871C19.8797 11.7775 21.6462 11.7948 21.6462 11.7948Z" fill="#141414"/>
</svg>
