<svg width="35" height="34" viewBox="0 0 35 34" fill="none" xmlns="http://www.w3.org/2000/svg">
<path d="M17.5 33.8637C26.8034 33.8637 34.3452 26.283 34.3452 16.9318C34.3452 7.58064 26.8034 0 17.5 0C8.19664 0 0.654766 7.58064 0.654766 16.9318C0.654766 26.283 8.19664 33.8637 17.5 33.8637Z" fill="#F7F7F5"/>
<path d="M21.1933 26.6536H13.8048C12.2218 26.6516 10.7043 26.0185 9.58516 24.8932C8.46602 23.768 7.83665 22.2424 7.83513 20.6514V13.2172C7.83715 11.6266 8.46681 10.1017 9.58595 8.97721C10.7051 7.85268 12.2223 7.22028 13.8048 7.21875H21.1895C21.9742 7.21775 22.7514 7.3721 23.4767 7.67301C24.2021 7.97391 24.8614 8.41547 25.4169 8.97247C25.9725 9.52947 26.4135 10.191 26.7147 10.9193C27.0159 11.6476 27.1715 12.4284 27.1725 13.2172V20.6398C27.1732 21.4295 27.0191 22.2115 26.719 22.9412C26.4188 23.6709 25.9785 24.334 25.4231 24.8925C24.8678 25.4511 24.2084 25.8941 23.4826 26.1963C22.7568 26.4984 21.9789 26.6539 21.1933 26.6536ZM13.8048 9.37818C12.7918 9.37818 11.8204 9.78265 11.1041 10.5026C10.3878 11.2226 9.98543 12.199 9.98543 13.2172V20.6398C9.98543 21.658 10.3878 22.6345 11.1041 23.3544C11.8204 24.0744 12.7918 24.4788 13.8048 24.4788H21.1895C22.2024 24.4788 23.1739 24.0744 23.8902 23.3544C24.6064 22.6345 25.0088 21.658 25.0088 20.6398V13.2172C25.0088 12.199 24.6064 11.2226 23.8902 10.5026C23.1739 9.78265 22.2024 9.37818 21.1895 9.37818H13.8048Z" fill="#141414"/>
<path d="M17.5 21.8954C16.1907 21.8939 14.9355 21.3704 14.0097 20.4398C13.0839 19.5093 12.5631 18.2476 12.5616 16.9316C12.5631 15.6156 13.0839 14.3539 14.0097 13.4233C14.9355 12.4928 16.1907 11.9693 17.5 11.9678C18.8095 11.9693 20.0649 12.4927 20.991 13.4232C21.9171 14.3537 22.4383 15.6154 22.4403 16.9316C22.4383 18.2478 21.9171 19.5094 20.991 20.4399C20.0649 21.3705 18.8095 21.8939 17.5 21.8954ZM17.5 13.9161C16.7045 13.9166 15.9417 14.2344 15.3792 14.7998C14.8167 15.3653 14.5004 16.132 14.4999 16.9316C14.5009 17.731 14.8173 18.4974 15.3797 19.0627C15.9421 19.628 16.7046 19.9461 17.5 19.9471C18.2955 19.9466 19.0583 19.6287 19.6208 19.0633C20.1833 18.4979 20.4996 17.7312 20.5001 16.9316C20.4996 16.132 20.1833 15.3653 19.6208 14.7998C19.0583 14.2344 18.2955 13.9166 17.5 13.9161Z" fill="#141414"/>
<path d="M22.6886 12.5175C23.1495 12.5175 23.5231 12.1419 23.5231 11.6787C23.5231 11.2154 23.1495 10.8398 22.6886 10.8398C22.2277 10.8398 21.854 11.2154 21.854 11.6787C21.854 12.1419 22.2277 12.5175 22.6886 12.5175Z" fill="#141414"/>
</svg>
